<mxfile host="app.diagrams.net" modified="2023-08-15T14:00:05.324Z" agent="Mozilla/5.0 (Windows NT 10.0; Win64; x64) AppleWebKit/537.36 (KHTML, like Gecko) Chrome/115.0.0.0 Safari/537.36" etag="StVy08DsSqzdLsGSX-4j" version="21.6.7" type="github">
  <diagram name="第 1 页" id="-WIHNXKfvVTFxInO3pld">
    <mxGraphModel dx="1434" dy="768" grid="1" gridSize="10" guides="1" tooltips="1" connect="1" arrows="1" fold="1" page="1" pageScale="1" pageWidth="827" pageHeight="1169" math="0" shadow="0">
      <root>
        <mxCell id="0" />
        <mxCell id="1" parent="0" />
        <mxCell id="OSD-rZQ_V-XbJ5NN2biw-43" value="用户" style="swimlane;fontStyle=0;childLayout=stackLayout;horizontal=1;startSize=30;horizontalStack=0;resizeParent=1;resizeParentMax=0;resizeLast=0;collapsible=1;marginBottom=0;whiteSpace=wrap;html=1;" parent="1" vertex="1">
          <mxGeometry x="326" y="570" width="140" height="120" as="geometry">
            <mxRectangle x="430" y="370" width="60" height="30" as="alternateBounds" />
          </mxGeometry>
        </mxCell>
        <mxCell id="OSD-rZQ_V-XbJ5NN2biw-44" value="管理层" style="text;strokeColor=none;fillColor=none;align=left;verticalAlign=middle;spacingLeft=4;spacingRight=4;overflow=hidden;points=[[0,0.5],[1,0.5]];portConstraint=eastwest;rotatable=0;whiteSpace=wrap;html=1;" parent="OSD-rZQ_V-XbJ5NN2biw-43" vertex="1">
          <mxGeometry y="30" width="140" height="30" as="geometry" />
        </mxCell>
        <mxCell id="OSD-rZQ_V-XbJ5NN2biw-45" value="研发人员" style="text;strokeColor=none;fillColor=none;align=left;verticalAlign=middle;spacingLeft=4;spacingRight=4;overflow=hidden;points=[[0,0.5],[1,0.5]];portConstraint=eastwest;rotatable=0;whiteSpace=wrap;html=1;" parent="OSD-rZQ_V-XbJ5NN2biw-43" vertex="1">
          <mxGeometry y="60" width="140" height="30" as="geometry" />
        </mxCell>
        <mxCell id="OSD-rZQ_V-XbJ5NN2biw-46" value="运维人员" style="text;strokeColor=none;fillColor=none;align=left;verticalAlign=middle;spacingLeft=4;spacingRight=4;overflow=hidden;points=[[0,0.5],[1,0.5]];portConstraint=eastwest;rotatable=0;whiteSpace=wrap;html=1;" parent="OSD-rZQ_V-XbJ5NN2biw-43" vertex="1">
          <mxGeometry y="90" width="140" height="30" as="geometry" />
        </mxCell>
        <mxCell id="OSD-rZQ_V-XbJ5NN2biw-78" style="edgeStyle=orthogonalEdgeStyle;rounded=0;orthogonalLoop=1;jettySize=auto;html=1;exitX=0.5;exitY=1;exitDx=0;exitDy=0;entryX=0.5;entryY=0;entryDx=0;entryDy=0;" parent="1" source="OSD-rZQ_V-XbJ5NN2biw-54" target="OSD-rZQ_V-XbJ5NN2biw-80" edge="1">
          <mxGeometry relative="1" as="geometry">
            <mxPoint x="366" y="107" as="targetPoint" />
          </mxGeometry>
        </mxCell>
        <mxCell id="OSD-rZQ_V-XbJ5NN2biw-54" value="触发规则" style="ellipse;whiteSpace=wrap;html=1;" parent="1" vertex="1">
          <mxGeometry x="326" y="20" width="80" height="40" as="geometry" />
        </mxCell>
        <mxCell id="oU1bLZ104cn8bty1seQJ-57" style="edgeStyle=orthogonalEdgeStyle;rounded=0;orthogonalLoop=1;jettySize=auto;html=1;exitX=0;exitY=0.5;exitDx=0;exitDy=0;" edge="1" parent="1" source="OSD-rZQ_V-XbJ5NN2biw-80" target="oU1bLZ104cn8bty1seQJ-31">
          <mxGeometry relative="1" as="geometry" />
        </mxCell>
        <mxCell id="oU1bLZ104cn8bty1seQJ-58" style="edgeStyle=orthogonalEdgeStyle;rounded=0;orthogonalLoop=1;jettySize=auto;html=1;exitX=1;exitY=0.5;exitDx=0;exitDy=0;entryX=0.5;entryY=0;entryDx=0;entryDy=0;" edge="1" parent="1" source="OSD-rZQ_V-XbJ5NN2biw-80" target="oU1bLZ104cn8bty1seQJ-33">
          <mxGeometry relative="1" as="geometry" />
        </mxCell>
        <mxCell id="oU1bLZ104cn8bty1seQJ-96" style="edgeStyle=orthogonalEdgeStyle;rounded=0;orthogonalLoop=1;jettySize=auto;html=1;exitX=0.25;exitY=0;exitDx=0;exitDy=0;entryX=-0.075;entryY=0.55;entryDx=0;entryDy=0;entryPerimeter=0;" edge="1" parent="1" source="OSD-rZQ_V-XbJ5NN2biw-80" target="oU1bLZ104cn8bty1seQJ-84">
          <mxGeometry relative="1" as="geometry">
            <Array as="points">
              <mxPoint x="344" y="100" />
              <mxPoint x="20" y="100" />
              <mxPoint x="20" y="500" />
              <mxPoint x="350" y="500" />
            </Array>
          </mxGeometry>
        </mxCell>
        <mxCell id="oU1bLZ104cn8bty1seQJ-97" value="创建工单即时通知" style="edgeLabel;html=1;align=center;verticalAlign=middle;resizable=0;points=[];" vertex="1" connectable="0" parent="oU1bLZ104cn8bty1seQJ-96">
          <mxGeometry x="-0.4347" y="1" relative="1" as="geometry">
            <mxPoint x="133" as="offset" />
          </mxGeometry>
        </mxCell>
        <mxCell id="OSD-rZQ_V-XbJ5NN2biw-80" value="创建工单" style="rounded=1;whiteSpace=wrap;html=1;" parent="1" vertex="1">
          <mxGeometry x="321" y="120" width="90" height="40" as="geometry" />
        </mxCell>
        <mxCell id="AnqzCqNc_b7Of7x_9liy-7" style="edgeStyle=orthogonalEdgeStyle;rounded=0;orthogonalLoop=1;jettySize=auto;html=1;exitX=1;exitY=0.5;exitDx=0;exitDy=0;" parent="1" source="AnqzCqNc_b7Of7x_9liy-1" edge="1">
          <mxGeometry relative="1" as="geometry">
            <mxPoint x="320" y="40" as="targetPoint" />
          </mxGeometry>
        </mxCell>
        <mxCell id="QgTYGsUYSailKNq_mToX-21" value="告警" style="edgeLabel;html=1;align=center;verticalAlign=middle;resizable=0;points=[];" parent="AnqzCqNc_b7Of7x_9liy-7" vertex="1" connectable="0">
          <mxGeometry x="-0.1943" y="1" relative="1" as="geometry">
            <mxPoint as="offset" />
          </mxGeometry>
        </mxCell>
        <mxCell id="AnqzCqNc_b7Of7x_9liy-1" value="烽火台" style="ellipse;whiteSpace=wrap;html=1;" parent="1" vertex="1">
          <mxGeometry x="30" y="20" width="80" height="40" as="geometry" />
        </mxCell>
        <mxCell id="AnqzCqNc_b7Of7x_9liy-6" style="edgeStyle=orthogonalEdgeStyle;rounded=0;orthogonalLoop=1;jettySize=auto;html=1;exitX=0;exitY=0.5;exitDx=0;exitDy=0;" parent="1" source="AnqzCqNc_b7Of7x_9liy-3" edge="1">
          <mxGeometry relative="1" as="geometry">
            <mxPoint x="410" y="40" as="targetPoint" />
          </mxGeometry>
        </mxCell>
        <mxCell id="QgTYGsUYSailKNq_mToX-22" value="配置触发&lt;br&gt;规则" style="edgeLabel;html=1;align=center;verticalAlign=middle;resizable=0;points=[];" parent="AnqzCqNc_b7Of7x_9liy-6" vertex="1" connectable="0">
          <mxGeometry x="-0.1093" y="-3" relative="1" as="geometry">
            <mxPoint y="3" as="offset" />
          </mxGeometry>
        </mxCell>
        <mxCell id="AnqzCqNc_b7Of7x_9liy-3" value="策略中心" style="ellipse;whiteSpace=wrap;html=1;" parent="1" vertex="1">
          <mxGeometry x="630" y="20" width="80" height="40" as="geometry" />
        </mxCell>
        <mxCell id="AnqzCqNc_b7Of7x_9liy-4" style="edgeStyle=orthogonalEdgeStyle;rounded=0;orthogonalLoop=1;jettySize=auto;html=1;exitX=1;exitY=0.5;exitDx=0;exitDy=0;entryX=1;entryY=0.5;entryDx=0;entryDy=0;" parent="1" source="OSD-rZQ_V-XbJ5NN2biw-45" target="AnqzCqNc_b7Of7x_9liy-3" edge="1">
          <mxGeometry relative="1" as="geometry">
            <mxPoint x="800" y="50" as="targetPoint" />
            <Array as="points">
              <mxPoint x="810" y="635" />
              <mxPoint x="810" y="40" />
            </Array>
          </mxGeometry>
        </mxCell>
        <mxCell id="oU1bLZ104cn8bty1seQJ-29" style="edgeStyle=orthogonalEdgeStyle;rounded=0;orthogonalLoop=1;jettySize=auto;html=1;exitX=1;exitY=0.5;exitDx=0;exitDy=0;entryX=0;entryY=0.5;entryDx=0;entryDy=0;" edge="1" parent="1" source="oU1bLZ104cn8bty1seQJ-31" target="oU1bLZ104cn8bty1seQJ-33">
          <mxGeometry relative="1" as="geometry" />
        </mxCell>
        <mxCell id="oU1bLZ104cn8bty1seQJ-30" value="升级" style="edgeLabel;html=1;align=center;verticalAlign=middle;resizable=0;points=[];" vertex="1" connectable="0" parent="oU1bLZ104cn8bty1seQJ-29">
          <mxGeometry x="-0.0554" y="-1" relative="1" as="geometry">
            <mxPoint x="1" y="-1" as="offset" />
          </mxGeometry>
        </mxCell>
        <mxCell id="oU1bLZ104cn8bty1seQJ-71" style="edgeStyle=orthogonalEdgeStyle;rounded=0;orthogonalLoop=1;jettySize=auto;html=1;exitX=0.5;exitY=1;exitDx=0;exitDy=0;entryX=0.5;entryY=0;entryDx=0;entryDy=0;" edge="1" parent="1" source="oU1bLZ104cn8bty1seQJ-31" target="oU1bLZ104cn8bty1seQJ-62">
          <mxGeometry relative="1" as="geometry" />
        </mxCell>
        <mxCell id="oU1bLZ104cn8bty1seQJ-31" value="事件" style="rounded=0;whiteSpace=wrap;html=1;" vertex="1" parent="1">
          <mxGeometry x="182" y="208" width="60" height="30" as="geometry" />
        </mxCell>
        <mxCell id="oU1bLZ104cn8bty1seQJ-101" style="edgeStyle=orthogonalEdgeStyle;rounded=0;orthogonalLoop=1;jettySize=auto;html=1;exitX=0.5;exitY=1;exitDx=0;exitDy=0;" edge="1" parent="1" source="oU1bLZ104cn8bty1seQJ-33">
          <mxGeometry relative="1" as="geometry">
            <mxPoint x="600" y="280" as="targetPoint" />
          </mxGeometry>
        </mxCell>
        <mxCell id="oU1bLZ104cn8bty1seQJ-33" value="故障" style="rounded=0;whiteSpace=wrap;html=1;" vertex="1" parent="1">
          <mxGeometry x="570" y="208" width="60" height="30" as="geometry" />
        </mxCell>
        <mxCell id="oU1bLZ104cn8bty1seQJ-70" value="" style="group" vertex="1" connectable="0" parent="1">
          <mxGeometry x="406" y="285" width="366" height="60" as="geometry" />
        </mxCell>
        <mxCell id="oU1bLZ104cn8bty1seQJ-69" value="" style="rounded=0;whiteSpace=wrap;html=1;movable=1;resizable=1;rotatable=1;deletable=1;editable=1;locked=0;connectable=1;" vertex="1" parent="oU1bLZ104cn8bty1seQJ-70">
          <mxGeometry width="366" height="60" as="geometry" />
        </mxCell>
        <mxCell id="oU1bLZ104cn8bty1seQJ-40" value="处理中" style="rounded=0;whiteSpace=wrap;html=1;" vertex="1" parent="oU1bLZ104cn8bty1seQJ-70">
          <mxGeometry x="16" y="15" width="60" height="30" as="geometry" />
        </mxCell>
        <mxCell id="oU1bLZ104cn8bty1seQJ-42" value="已恢复" style="rounded=0;whiteSpace=wrap;html=1;" vertex="1" parent="oU1bLZ104cn8bty1seQJ-70">
          <mxGeometry x="116" y="15" width="60" height="30" as="geometry" />
        </mxCell>
        <mxCell id="oU1bLZ104cn8bty1seQJ-44" value="复盘中" style="rounded=0;whiteSpace=wrap;html=1;" vertex="1" parent="oU1bLZ104cn8bty1seQJ-70">
          <mxGeometry x="206" y="15" width="60" height="30" as="geometry" />
        </mxCell>
        <mxCell id="oU1bLZ104cn8bty1seQJ-45" value="已复盘" style="rounded=0;whiteSpace=wrap;html=1;" vertex="1" parent="oU1bLZ104cn8bty1seQJ-70">
          <mxGeometry x="296" y="15" width="60" height="30" as="geometry" />
        </mxCell>
        <mxCell id="oU1bLZ104cn8bty1seQJ-39" style="edgeStyle=orthogonalEdgeStyle;rounded=0;orthogonalLoop=1;jettySize=auto;html=1;exitX=1;exitY=0.5;exitDx=0;exitDy=0;entryX=0;entryY=0.5;entryDx=0;entryDy=0;" edge="1" parent="oU1bLZ104cn8bty1seQJ-70" source="oU1bLZ104cn8bty1seQJ-40" target="oU1bLZ104cn8bty1seQJ-42">
          <mxGeometry relative="1" as="geometry" />
        </mxCell>
        <mxCell id="oU1bLZ104cn8bty1seQJ-65" style="edgeStyle=orthogonalEdgeStyle;rounded=0;orthogonalLoop=1;jettySize=auto;html=1;exitX=1;exitY=0.5;exitDx=0;exitDy=0;entryX=0;entryY=0.5;entryDx=0;entryDy=0;" edge="1" parent="oU1bLZ104cn8bty1seQJ-70" source="oU1bLZ104cn8bty1seQJ-42" target="oU1bLZ104cn8bty1seQJ-44">
          <mxGeometry relative="1" as="geometry" />
        </mxCell>
        <mxCell id="oU1bLZ104cn8bty1seQJ-68" style="edgeStyle=orthogonalEdgeStyle;rounded=0;orthogonalLoop=1;jettySize=auto;html=1;exitX=1;exitY=0.5;exitDx=0;exitDy=0;entryX=0;entryY=0.5;entryDx=0;entryDy=0;" edge="1" parent="oU1bLZ104cn8bty1seQJ-70" source="oU1bLZ104cn8bty1seQJ-44" target="oU1bLZ104cn8bty1seQJ-45">
          <mxGeometry relative="1" as="geometry" />
        </mxCell>
        <mxCell id="oU1bLZ104cn8bty1seQJ-74" value="" style="group" vertex="1" connectable="0" parent="1">
          <mxGeometry x="32" y="285" width="360" height="60" as="geometry" />
        </mxCell>
        <mxCell id="oU1bLZ104cn8bty1seQJ-62" value="" style="rounded=0;whiteSpace=wrap;html=1;" vertex="1" parent="oU1bLZ104cn8bty1seQJ-74">
          <mxGeometry width="360" height="60" as="geometry" />
        </mxCell>
        <mxCell id="oU1bLZ104cn8bty1seQJ-35" value="分配" style="rounded=0;whiteSpace=wrap;html=1;" vertex="1" parent="oU1bLZ104cn8bty1seQJ-74">
          <mxGeometry x="32" y="15" width="60" height="30" as="geometry" />
        </mxCell>
        <mxCell id="oU1bLZ104cn8bty1seQJ-37" value="响应" style="rounded=0;whiteSpace=wrap;html=1;" vertex="1" parent="oU1bLZ104cn8bty1seQJ-74">
          <mxGeometry x="152" y="15" width="60" height="30" as="geometry" />
        </mxCell>
        <mxCell id="oU1bLZ104cn8bty1seQJ-38" value="完成" style="rounded=0;whiteSpace=wrap;html=1;" vertex="1" parent="oU1bLZ104cn8bty1seQJ-74">
          <mxGeometry x="272" y="15" width="60" height="30" as="geometry" />
        </mxCell>
        <mxCell id="oU1bLZ104cn8bty1seQJ-34" style="edgeStyle=orthogonalEdgeStyle;rounded=0;orthogonalLoop=1;jettySize=auto;html=1;exitX=1;exitY=0.5;exitDx=0;exitDy=0;entryX=0;entryY=0.5;entryDx=0;entryDy=0;" edge="1" parent="oU1bLZ104cn8bty1seQJ-74" source="oU1bLZ104cn8bty1seQJ-35" target="oU1bLZ104cn8bty1seQJ-37">
          <mxGeometry relative="1" as="geometry" />
        </mxCell>
        <mxCell id="oU1bLZ104cn8bty1seQJ-36" style="edgeStyle=orthogonalEdgeStyle;rounded=0;orthogonalLoop=1;jettySize=auto;html=1;exitX=1;exitY=0.5;exitDx=0;exitDy=0;entryX=0;entryY=0.5;entryDx=0;entryDy=0;" edge="1" parent="oU1bLZ104cn8bty1seQJ-74" source="oU1bLZ104cn8bty1seQJ-37" target="oU1bLZ104cn8bty1seQJ-38">
          <mxGeometry relative="1" as="geometry" />
        </mxCell>
        <mxCell id="oU1bLZ104cn8bty1seQJ-98" style="edgeStyle=orthogonalEdgeStyle;rounded=0;orthogonalLoop=1;jettySize=auto;html=1;exitX=0.5;exitY=1;exitDx=0;exitDy=0;entryX=0.5;entryY=0;entryDx=0;entryDy=0;" edge="1" parent="1" source="oU1bLZ104cn8bty1seQJ-84" target="OSD-rZQ_V-XbJ5NN2biw-43">
          <mxGeometry relative="1" as="geometry" />
        </mxCell>
        <mxCell id="oU1bLZ104cn8bty1seQJ-99" value="通知用户" style="edgeLabel;html=1;align=center;verticalAlign=middle;resizable=0;points=[];" vertex="1" connectable="0" parent="oU1bLZ104cn8bty1seQJ-98">
          <mxGeometry x="-0.1143" y="2" relative="1" as="geometry">
            <mxPoint as="offset" />
          </mxGeometry>
        </mxCell>
        <mxCell id="oU1bLZ104cn8bty1seQJ-84" value="烽火台" style="ellipse;whiteSpace=wrap;html=1;" vertex="1" parent="1">
          <mxGeometry x="356" y="460" width="80" height="40" as="geometry" />
        </mxCell>
        <mxCell id="oU1bLZ104cn8bty1seQJ-89" style="edgeStyle=orthogonalEdgeStyle;rounded=0;orthogonalLoop=1;jettySize=auto;html=1;exitX=0.5;exitY=1;exitDx=0;exitDy=0;entryX=0;entryY=0.5;entryDx=0;entryDy=0;" edge="1" parent="1" source="oU1bLZ104cn8bty1seQJ-62" target="oU1bLZ104cn8bty1seQJ-84">
          <mxGeometry relative="1" as="geometry" />
        </mxCell>
        <mxCell id="oU1bLZ104cn8bty1seQJ-92" value="状态变更" style="edgeLabel;html=1;align=center;verticalAlign=middle;resizable=0;points=[];" vertex="1" connectable="0" parent="oU1bLZ104cn8bty1seQJ-89">
          <mxGeometry x="-0.4249" y="-1" relative="1" as="geometry">
            <mxPoint as="offset" />
          </mxGeometry>
        </mxCell>
        <mxCell id="oU1bLZ104cn8bty1seQJ-90" style="edgeStyle=orthogonalEdgeStyle;rounded=0;orthogonalLoop=1;jettySize=auto;html=1;exitX=0.5;exitY=1;exitDx=0;exitDy=0;entryX=1;entryY=0.5;entryDx=0;entryDy=0;" edge="1" parent="1" source="oU1bLZ104cn8bty1seQJ-69" target="oU1bLZ104cn8bty1seQJ-84">
          <mxGeometry relative="1" as="geometry">
            <Array as="points">
              <mxPoint x="610" y="345" />
              <mxPoint x="610" y="480" />
            </Array>
          </mxGeometry>
        </mxCell>
        <mxCell id="oU1bLZ104cn8bty1seQJ-93" value="状态变更" style="edgeLabel;html=1;align=center;verticalAlign=middle;resizable=0;points=[];" vertex="1" connectable="0" parent="oU1bLZ104cn8bty1seQJ-90">
          <mxGeometry x="-0.6047" y="1" relative="1" as="geometry">
            <mxPoint as="offset" />
          </mxGeometry>
        </mxCell>
      </root>
    </mxGraphModel>
  </diagram>
</mxfile>
